<svg width="154" height="114" viewBox="0 0 154 114" fill="none" xmlns="http://www.w3.org/2000/svg">
<path d="M28.992 83.32C23.9147 83.32 19.4987 82.4027 15.744 80.568C11.9893 78.6907 9.10933 76.0453 7.104 72.632C5.09867 69.2187 4.096 65.2507 4.096 60.728C4.096 54.456 5.26933 48.888 7.616 44.024C10.0053 39.16 13.2267 35.4053 17.28 32.76C21.3333 30.072 25.8347 28.728 30.784 28.728C35.392 28.728 38.8907 29.9227 41.28 32.312C43.6693 34.6587 44.864 37.7733 44.864 41.656C44.864 44.2587 44.3947 46.3493 43.456 47.928C42.56 49.5067 41.2587 50.296 39.552 50.296C38.3573 50.296 37.4187 50.0187 36.736 49.464C36.0533 48.9093 35.712 48.0987 35.712 47.032C35.712 46.648 35.7973 45.944 35.968 44.92C36.224 43.64 36.352 42.616 36.352 41.848C36.352 37.9653 34.2827 36.024 30.144 36.024C27.328 36.024 24.64 36.9413 22.08 38.776C19.52 40.6107 17.4507 43.32 15.872 46.904C14.2933 50.4453 13.504 54.6693 13.504 59.576C13.504 64.696 14.9333 68.664 17.792 71.48C20.6507 74.2533 24.8747 75.64 30.464 75.64C33.2373 75.64 36.032 75.2987 38.848 74.616C41.7067 73.8907 44.864 72.8027 48.32 71.352C48.96 71.096 49.4933 70.968 49.92 70.968C50.6027 70.968 51.1147 71.224 51.456 71.736C51.7973 72.248 51.968 72.9093 51.968 73.72C51.968 76.3227 50.56 78.2427 47.744 79.48C44.7147 80.8027 41.5573 81.784 38.272 82.424C35.0293 83.0213 31.936 83.32 28.992 83.32ZM71.203 68.728C71.7577 68.728 72.1843 68.984 72.483 69.496C72.8243 70.008 72.995 70.712 72.995 71.608C72.995 73.3147 72.5897 74.6373 71.779 75.576C69.9443 77.8373 67.939 79.6933 65.763 81.144C63.6297 82.5947 61.1977 83.32 58.467 83.32C54.7123 83.32 51.9177 81.6133 50.083 78.2C48.291 74.7867 47.395 70.3707 47.395 64.952C47.395 59.7467 48.0563 53.816 49.379 47.16C50.7443 40.504 52.7283 34.7867 55.331 30.008C57.9763 25.2293 61.1123 22.84 64.739 22.84C66.787 22.84 68.387 23.8 69.539 25.72C70.7337 27.5973 71.331 30.3067 71.331 33.848C71.331 38.9253 69.923 44.8133 67.107 51.512C64.291 58.2107 60.4723 64.8453 55.651 71.416C55.9497 73.1653 56.4403 74.424 57.123 75.192C57.8057 75.9173 58.7017 76.28 59.811 76.28C61.5603 76.28 63.0963 75.7893 64.419 74.808C65.7417 73.784 67.427 72.056 69.475 69.624C69.987 69.0267 70.563 68.728 71.203 68.728ZM63.331 29.176C62.3497 29.176 61.2403 30.9467 60.003 34.488C58.7657 38.0293 57.6777 42.424 56.739 47.672C55.8003 52.92 55.2883 57.9547 55.203 62.776C58.2323 57.784 60.643 52.792 62.435 47.8C64.227 42.7653 65.123 38.1787 65.123 34.04C65.123 30.7973 64.5257 29.176 63.331 29.176ZM96.366 68.728C96.9207 68.728 97.3473 68.984 97.646 69.496C97.9873 70.008 98.158 70.712 98.158 71.608C98.158 73.3147 97.7527 74.6373 96.942 75.576C95.3633 77.496 93.1233 79.2667 90.222 80.888C87.3633 82.5093 84.2913 83.32 81.006 83.32C76.526 83.32 73.0487 82.104 70.574 79.672C68.0993 77.24 66.862 73.912 66.862 69.688C66.862 66.744 67.4807 64.0133 68.718 61.496C69.9553 58.936 71.662 56.9093 73.838 55.416C76.0567 53.9227 78.5527 53.176 81.326 53.176C83.8007 53.176 85.7847 53.9227 87.278 55.416C88.7713 56.8667 89.518 58.8507 89.518 61.368C89.518 64.312 88.4513 66.8507 86.318 68.984C84.2273 71.0747 80.6647 72.7387 75.63 73.976C76.6967 75.9387 78.7233 76.92 81.71 76.92C83.63 76.92 85.806 76.2587 88.238 74.936C90.7127 73.5707 92.846 71.8 94.638 69.624C95.15 69.0267 95.726 68.728 96.366 68.728ZM80.238 59.448C78.6593 59.448 77.3153 60.3653 76.206 62.2C75.1393 64.0347 74.606 66.2533 74.606 68.856V68.984C77.1233 68.3867 79.1073 67.4907 80.558 66.296C82.0087 65.1013 82.734 63.7147 82.734 62.136C82.734 61.3253 82.4993 60.6853 82.03 60.216C81.6033 59.704 81.006 59.448 80.238 59.448ZM100.507 83.32C97.8612 83.32 95.7492 82.36 94.1705 80.44C92.5918 78.52 91.8025 76.0027 91.8025 72.888C91.8025 69.4747 92.5918 66.2533 94.1705 63.224C95.7492 60.152 97.8398 57.6987 100.443 55.864C103.088 53.9867 105.883 53.048 108.827 53.048C109.765 53.048 110.384 53.24 110.683 53.624C111.024 53.9653 111.301 54.6053 111.515 55.544C112.411 55.3733 113.349 55.288 114.331 55.288C116.421 55.288 117.467 56.0347 117.467 57.528C117.467 58.424 117.147 60.5573 116.507 63.928C115.525 68.8347 115.035 72.248 115.035 74.168C115.035 74.808 115.184 75.32 115.483 75.704C115.824 76.088 116.251 76.28 116.763 76.28C117.573 76.28 118.555 75.768 119.707 74.744C120.859 73.6773 122.416 71.9707 124.379 69.624C124.891 69.0267 125.467 68.728 126.107 68.728C126.661 68.728 127.088 68.984 127.387 69.496C127.728 70.008 127.899 70.712 127.899 71.608C127.899 73.3147 127.493 74.6373 126.683 75.576C124.933 77.752 123.077 79.5867 121.115 81.08C119.152 82.5733 117.253 83.32 115.419 83.32C114.011 83.32 112.709 82.8507 111.515 81.912C110.363 80.9307 109.488 79.608 108.891 77.944C106.672 81.528 103.877 83.32 100.507 83.32ZM102.811 76.856C103.749 76.856 104.645 76.3013 105.499 75.192C106.352 74.0827 106.971 72.6107 107.355 70.776L109.723 59C107.931 59.0427 106.267 59.7253 104.731 61.048C103.237 62.328 102.043 64.0347 101.147 66.168C100.251 68.3013 99.8025 70.5627 99.8025 72.952C99.8025 74.2747 100.059 75.256 100.571 75.896C101.125 76.536 101.872 76.856 102.811 76.856ZM148.553 61.944C149.492 61.944 150.281 62.2853 150.921 62.968C151.604 63.608 151.945 64.4187 151.945 65.4C151.945 65.9547 151.817 66.552 151.561 67.192C150.878 68.7707 149.918 70.0933 148.681 71.16C147.444 72.2267 146.078 72.76 144.585 72.76C143.39 72.76 142.366 72.3333 141.513 71.48C140.702 70.6267 140.297 69.4747 140.297 68.024C140.297 67.2133 140.34 66.3387 140.425 65.4C140.51 64.7173 140.553 64.248 140.553 63.992C140.553 63.6507 140.468 63.3947 140.297 63.224C140.169 63.0533 139.998 62.968 139.785 62.968C139.188 62.968 138.377 63.6933 137.353 65.144C136.329 66.552 135.305 68.4293 134.281 70.776C133.257 73.1227 132.425 75.5973 131.785 78.2C131.316 80.248 130.782 81.6133 130.185 82.296C129.588 82.9787 128.606 83.32 127.241 83.32C125.62 83.32 124.468 82.4667 123.785 80.76C123.145 79.0533 122.825 76.3227 122.825 72.568C122.825 67.0213 123.614 61.752 125.193 56.76C125.577 55.5227 126.196 54.6267 127.049 54.072C127.945 53.4747 129.182 53.176 130.761 53.176C131.614 53.176 132.212 53.2827 132.553 53.496C132.894 53.7093 133.065 54.1147 133.065 54.712C133.065 55.3947 132.745 56.9307 132.105 59.32C131.678 61.0267 131.337 62.52 131.081 63.8C130.825 65.08 130.612 66.6587 130.441 68.536C131.849 64.8667 133.428 61.88 135.177 59.576C136.926 57.272 138.633 55.6293 140.297 54.648C141.961 53.6667 143.476 53.176 144.841 53.176C146.078 53.176 147.017 53.5387 147.657 54.264C148.34 54.9467 148.681 55.9707 148.681 57.336C148.681 58.1467 148.446 59.6827 147.977 61.944H148.553Z" fill="#003E9A"/>
<path d="M29.992 84.32C24.9147 84.32 20.4987 83.4027 16.744 81.568C12.9893 79.6907 10.1093 77.0453 8.104 73.632C6.09867 70.2187 5.096 66.2507 5.096 61.728C5.096 55.456 6.26933 49.888 8.616 45.024C11.0053 40.16 14.2267 36.4053 18.28 33.76C22.3333 31.072 26.8347 29.728 31.784 29.728C36.392 29.728 39.8907 30.9227 42.28 33.312C44.6693 35.6587 45.864 38.7733 45.864 42.656C45.864 45.2587 45.3947 47.3493 44.456 48.928C43.56 50.5067 42.2587 51.296 40.552 51.296C39.3573 51.296 38.4187 51.0187 37.736 50.464C37.0533 49.9093 36.712 49.0987 36.712 48.032C36.712 47.648 36.7973 46.944 36.968 45.92C37.224 44.64 37.352 43.616 37.352 42.848C37.352 38.9653 35.2827 37.024 31.144 37.024C28.328 37.024 25.64 37.9413 23.08 39.776C20.52 41.6107 18.4507 44.32 16.872 47.904C15.2933 51.4453 14.504 55.6693 14.504 60.576C14.504 65.696 15.9333 69.664 18.792 72.48C21.6507 75.2533 25.8747 76.64 31.464 76.64C34.2373 76.64 37.032 76.2987 39.848 75.616C42.7067 74.8907 45.864 73.8027 49.32 72.352C49.96 72.096 50.4933 71.968 50.92 71.968C51.6027 71.968 52.1147 72.224 52.456 72.736C52.7973 73.248 52.968 73.9093 52.968 74.72C52.968 77.3227 51.56 79.2427 48.744 80.48C45.7147 81.8027 42.5573 82.784 39.272 83.424C36.0293 84.0213 32.936 84.32 29.992 84.32ZM72.203 69.728C72.7577 69.728 73.1843 69.984 73.483 70.496C73.8243 71.008 73.995 71.712 73.995 72.608C73.995 74.3147 73.5897 75.6373 72.779 76.576C70.9443 78.8373 68.939 80.6933 66.763 82.144C64.6297 83.5947 62.1977 84.32 59.467 84.32C55.7123 84.32 52.9177 82.6133 51.083 79.2C49.291 75.7867 48.395 71.3707 48.395 65.952C48.395 60.7467 49.0563 54.816 50.379 48.16C51.7443 41.504 53.7283 35.7867 56.331 31.008C58.9763 26.2293 62.1123 23.84 65.739 23.84C67.787 23.84 69.387 24.8 70.539 26.72C71.7337 28.5973 72.331 31.3067 72.331 34.848C72.331 39.9253 70.923 45.8133 68.107 52.512C65.291 59.2107 61.4723 65.8453 56.651 72.416C56.9497 74.1653 57.4403 75.424 58.123 76.192C58.8057 76.9173 59.7017 77.28 60.811 77.28C62.5603 77.28 64.0963 76.7893 65.419 75.808C66.7417 74.784 68.427 73.056 70.475 70.624C70.987 70.0267 71.563 69.728 72.203 69.728ZM64.331 30.176C63.3497 30.176 62.2403 31.9467 61.003 35.488C59.7657 39.0293 58.6777 43.424 57.739 48.672C56.8003 53.92 56.2883 58.9547 56.203 63.776C59.2323 58.784 61.643 53.792 63.435 48.8C65.227 43.7653 66.123 39.1787 66.123 35.04C66.123 31.7973 65.5257 30.176 64.331 30.176ZM97.366 69.728C97.9207 69.728 98.3473 69.984 98.646 70.496C98.9873 71.008 99.158 71.712 99.158 72.608C99.158 74.3147 98.7527 75.6373 97.942 76.576C96.3633 78.496 94.1233 80.2667 91.222 81.888C88.3633 83.5093 85.2913 84.32 82.006 84.32C77.526 84.32 74.0487 83.104 71.574 80.672C69.0993 78.24 67.862 74.912 67.862 70.688C67.862 67.744 68.4807 65.0133 69.718 62.496C70.9553 59.936 72.662 57.9093 74.838 56.416C77.0567 54.9227 79.5527 54.176 82.326 54.176C84.8007 54.176 86.7847 54.9227 88.278 56.416C89.7713 57.8667 90.518 59.8507 90.518 62.368C90.518 65.312 89.4513 67.8507 87.318 69.984C85.2273 72.0747 81.6647 73.7387 76.63 74.976C77.6967 76.9387 79.7233 77.92 82.71 77.92C84.63 77.92 86.806 77.2587 89.238 75.936C91.7127 74.5707 93.846 72.8 95.638 70.624C96.15 70.0267 96.726 69.728 97.366 69.728ZM81.238 60.448C79.6593 60.448 78.3153 61.3653 77.206 63.2C76.1393 65.0347 75.606 67.2533 75.606 69.856V69.984C78.1233 69.3867 80.1073 68.4907 81.558 67.296C83.0087 66.1013 83.734 64.7147 83.734 63.136C83.734 62.3253 83.4993 61.6853 83.03 61.216C82.6033 60.704 82.006 60.448 81.238 60.448ZM101.507 84.32C98.8612 84.32 96.7492 83.36 95.1705 81.44C93.5918 79.52 92.8025 77.0027 92.8025 73.888C92.8025 70.4747 93.5918 67.2533 95.1705 64.224C96.7492 61.152 98.8398 58.6987 101.443 56.864C104.088 54.9867 106.883 54.048 109.827 54.048C110.765 54.048 111.384 54.24 111.683 54.624C112.024 54.9653 112.301 55.6053 112.515 56.544C113.411 56.3733 114.349 56.288 115.331 56.288C117.421 56.288 118.467 57.0347 118.467 58.528C118.467 59.424 118.147 61.5573 117.507 64.928C116.525 69.8347 116.035 73.248 116.035 75.168C116.035 75.808 116.184 76.32 116.483 76.704C116.824 77.088 117.251 77.28 117.763 77.28C118.573 77.28 119.555 76.768 120.707 75.744C121.859 74.6773 123.416 72.9707 125.379 70.624C125.891 70.0267 126.467 69.728 127.107 69.728C127.661 69.728 128.088 69.984 128.387 70.496C128.728 71.008 128.899 71.712 128.899 72.608C128.899 74.3147 128.493 75.6373 127.683 76.576C125.933 78.752 124.077 80.5867 122.115 82.08C120.152 83.5733 118.253 84.32 116.419 84.32C115.011 84.32 113.709 83.8507 112.515 82.912C111.363 81.9307 110.488 80.608 109.891 78.944C107.672 82.528 104.877 84.32 101.507 84.32ZM103.811 77.856C104.749 77.856 105.645 77.3013 106.499 76.192C107.352 75.0827 107.971 73.6107 108.355 71.776L110.723 60C108.931 60.0427 107.267 60.7253 105.731 62.048C104.237 63.328 103.043 65.0347 102.147 67.168C101.251 69.3013 100.803 71.5627 100.803 73.952C100.803 75.2747 101.059 76.256 101.571 76.896C102.125 77.536 102.872 77.856 103.811 77.856ZM149.553 62.944C150.492 62.944 151.281 63.2853 151.921 63.968C152.604 64.608 152.945 65.4187 152.945 66.4C152.945 66.9547 152.817 67.552 152.561 68.192C151.878 69.7707 150.918 71.0933 149.681 72.16C148.444 73.2267 147.078 73.76 145.585 73.76C144.39 73.76 143.366 73.3333 142.513 72.48C141.702 71.6267 141.297 70.4747 141.297 69.024C141.297 68.2133 141.34 67.3387 141.425 66.4C141.51 65.7173 141.553 65.248 141.553 64.992C141.553 64.6507 141.468 64.3947 141.297 64.224C141.169 64.0533 140.998 63.968 140.785 63.968C140.188 63.968 139.377 64.6933 138.353 66.144C137.329 67.552 136.305 69.4293 135.281 71.776C134.257 74.1227 133.425 76.5973 132.785 79.2C132.316 81.248 131.782 82.6133 131.185 83.296C130.588 83.9787 129.606 84.32 128.241 84.32C126.62 84.32 125.468 83.4667 124.785 81.76C124.145 80.0533 123.825 77.3227 123.825 73.568C123.825 68.0213 124.614 62.752 126.193 57.76C126.577 56.5227 127.196 55.6267 128.049 55.072C128.945 54.4747 130.182 54.176 131.761 54.176C132.614 54.176 133.212 54.2827 133.553 54.496C133.894 54.7093 134.065 55.1147 134.065 55.712C134.065 56.3947 133.745 57.9307 133.105 60.32C132.678 62.0267 132.337 63.52 132.081 64.8C131.825 66.08 131.612 67.6587 131.441 69.536C132.849 65.8667 134.428 62.88 136.177 60.576C137.926 58.272 139.633 56.6293 141.297 55.648C142.961 54.6667 144.476 54.176 145.841 54.176C147.078 54.176 148.017 54.5387 148.657 55.264C149.34 55.9467 149.681 56.9707 149.681 58.336C149.681 59.1467 149.446 60.6827 148.977 62.944H149.553Z" fill="white"/>
<path d="M30.992 84.32C25.9147 84.32 21.4987 83.4027 17.744 81.568C13.9893 79.6907 11.1093 77.0453 9.104 73.632C7.09867 70.2187 6.096 66.2507 6.096 61.728C6.096 55.456 7.26933 49.888 9.616 45.024C12.0053 40.16 15.2267 36.4053 19.28 33.76C23.3333 31.072 27.8347 29.728 32.784 29.728C37.392 29.728 40.8907 30.9227 43.28 33.312C45.6693 35.6587 46.864 38.7733 46.864 42.656C46.864 45.2587 46.3947 47.3493 45.456 48.928C44.56 50.5067 43.2587 51.296 41.552 51.296C40.3573 51.296 39.4187 51.0187 38.736 50.464C38.0533 49.9093 37.712 49.0987 37.712 48.032C37.712 47.648 37.7973 46.944 37.968 45.92C38.224 44.64 38.352 43.616 38.352 42.848C38.352 38.9653 36.2827 37.024 32.144 37.024C29.328 37.024 26.64 37.9413 24.08 39.776C21.52 41.6107 19.4507 44.32 17.872 47.904C16.2933 51.4453 15.504 55.6693 15.504 60.576C15.504 65.696 16.9333 69.664 19.792 72.48C22.6507 75.2533 26.8747 76.64 32.464 76.64C35.2373 76.64 38.032 76.2987 40.848 75.616C43.7067 74.8907 46.864 73.8027 50.32 72.352C50.96 72.096 51.4933 71.968 51.92 71.968C52.6027 71.968 53.1147 72.224 53.456 72.736C53.7973 73.248 53.968 73.9093 53.968 74.72C53.968 77.3227 52.56 79.2427 49.744 80.48C46.7147 81.8027 43.5573 82.784 40.272 83.424C37.0293 84.0213 33.936 84.32 30.992 84.32ZM73.203 69.728C73.7577 69.728 74.1843 69.984 74.483 70.496C74.8243 71.008 74.995 71.712 74.995 72.608C74.995 74.3147 74.5897 75.6373 73.779 76.576C71.9443 78.8373 69.939 80.6933 67.763 82.144C65.6297 83.5947 63.1977 84.32 60.467 84.32C56.7123 84.32 53.9177 82.6133 52.083 79.2C50.291 75.7867 49.395 71.3707 49.395 65.952C49.395 60.7467 50.0563 54.816 51.379 48.16C52.7443 41.504 54.7283 35.7867 57.331 31.008C59.9763 26.2293 63.1123 23.84 66.739 23.84C68.787 23.84 70.387 24.8 71.539 26.72C72.7337 28.5973 73.331 31.3067 73.331 34.848C73.331 39.9253 71.923 45.8133 69.107 52.512C66.291 59.2107 62.4723 65.8453 57.651 72.416C57.9497 74.1653 58.4403 75.424 59.123 76.192C59.8057 76.9173 60.7017 77.28 61.811 77.28C63.5603 77.28 65.0963 76.7893 66.419 75.808C67.7417 74.784 69.427 73.056 71.475 70.624C71.987 70.0267 72.563 69.728 73.203 69.728ZM65.331 30.176C64.3497 30.176 63.2403 31.9467 62.003 35.488C60.7657 39.0293 59.6777 43.424 58.739 48.672C57.8003 53.92 57.2883 58.9547 57.203 63.776C60.2323 58.784 62.643 53.792 64.435 48.8C66.227 43.7653 67.123 39.1787 67.123 35.04C67.123 31.7973 66.5257 30.176 65.331 30.176ZM98.366 69.728C98.9207 69.728 99.3473 69.984 99.646 70.496C99.9873 71.008 100.158 71.712 100.158 72.608C100.158 74.3147 99.7527 75.6373 98.942 76.576C97.3633 78.496 95.1233 80.2667 92.222 81.888C89.3633 83.5093 86.2913 84.32 83.006 84.32C78.526 84.32 75.0487 83.104 72.574 80.672C70.0993 78.24 68.862 74.912 68.862 70.688C68.862 67.744 69.4807 65.0133 70.718 62.496C71.9553 59.936 73.662 57.9093 75.838 56.416C78.0567 54.9227 80.5527 54.176 83.326 54.176C85.8007 54.176 87.7847 54.9227 89.278 56.416C90.7713 57.8667 91.518 59.8507 91.518 62.368C91.518 65.312 90.4513 67.8507 88.318 69.984C86.2273 72.0747 82.6647 73.7387 77.63 74.976C78.6967 76.9387 80.7233 77.92 83.71 77.92C85.63 77.92 87.806 77.2587 90.238 75.936C92.7127 74.5707 94.846 72.8 96.638 70.624C97.15 70.0267 97.726 69.728 98.366 69.728ZM82.238 60.448C80.6593 60.448 79.3153 61.3653 78.206 63.2C77.1393 65.0347 76.606 67.2533 76.606 69.856V69.984C79.1233 69.3867 81.1073 68.4907 82.558 67.296C84.0087 66.1013 84.734 64.7147 84.734 63.136C84.734 62.3253 84.4993 61.6853 84.03 61.216C83.6033 60.704 83.006 60.448 82.238 60.448ZM102.507 84.32C99.8612 84.32 97.7492 83.36 96.1705 81.44C94.5918 79.52 93.8025 77.0027 93.8025 73.888C93.8025 70.4747 94.5918 67.2533 96.1705 64.224C97.7492 61.152 99.8398 58.6987 102.443 56.864C105.088 54.9867 107.883 54.048 110.827 54.048C111.765 54.048 112.384 54.24 112.683 54.624C113.024 54.9653 113.301 55.6053 113.515 56.544C114.411 56.3733 115.349 56.288 116.331 56.288C118.421 56.288 119.467 57.0347 119.467 58.528C119.467 59.424 119.147 61.5573 118.507 64.928C117.525 69.8347 117.035 73.248 117.035 75.168C117.035 75.808 117.184 76.32 117.483 76.704C117.824 77.088 118.251 77.28 118.763 77.28C119.573 77.28 120.555 76.768 121.707 75.744C122.859 74.6773 124.416 72.9707 126.379 70.624C126.891 70.0267 127.467 69.728 128.107 69.728C128.661 69.728 129.088 69.984 129.387 70.496C129.728 71.008 129.899 71.712 129.899 72.608C129.899 74.3147 129.493 75.6373 128.683 76.576C126.933 78.752 125.077 80.5867 123.115 82.08C121.152 83.5733 119.253 84.32 117.419 84.32C116.011 84.32 114.709 83.8507 113.515 82.912C112.363 81.9307 111.488 80.608 110.891 78.944C108.672 82.528 105.877 84.32 102.507 84.32ZM104.811 77.856C105.749 77.856 106.645 77.3013 107.499 76.192C108.352 75.0827 108.971 73.6107 109.355 71.776L111.723 60C109.931 60.0427 108.267 60.7253 106.731 62.048C105.237 63.328 104.043 65.0347 103.147 67.168C102.251 69.3013 101.803 71.5627 101.803 73.952C101.803 75.2747 102.059 76.256 102.571 76.896C103.125 77.536 103.872 77.856 104.811 77.856ZM150.553 62.944C151.492 62.944 152.281 63.2853 152.921 63.968C153.604 64.608 153.945 65.4187 153.945 66.4C153.945 66.9547 153.817 67.552 153.561 68.192C152.878 69.7707 151.918 71.0933 150.681 72.16C149.444 73.2267 148.078 73.76 146.585 73.76C145.39 73.76 144.366 73.3333 143.513 72.48C142.702 71.6267 142.297 70.4747 142.297 69.024C142.297 68.2133 142.34 67.3387 142.425 66.4C142.51 65.7173 142.553 65.248 142.553 64.992C142.553 64.6507 142.468 64.3947 142.297 64.224C142.169 64.0533 141.998 63.968 141.785 63.968C141.188 63.968 140.377 64.6933 139.353 66.144C138.329 67.552 137.305 69.4293 136.281 71.776C135.257 74.1227 134.425 76.5973 133.785 79.2C133.316 81.248 132.782 82.6133 132.185 83.296C131.588 83.9787 130.606 84.32 129.241 84.32C127.62 84.32 126.468 83.4667 125.785 81.76C125.145 80.0533 124.825 77.3227 124.825 73.568C124.825 68.0213 125.614 62.752 127.193 57.76C127.577 56.5227 128.196 55.6267 129.049 55.072C129.945 54.4747 131.182 54.176 132.761 54.176C133.614 54.176 134.212 54.2827 134.553 54.496C134.894 54.7093 135.065 55.1147 135.065 55.712C135.065 56.3947 134.745 57.9307 134.105 60.32C133.678 62.0267 133.337 63.52 133.081 64.8C132.825 66.08 132.612 67.6587 132.441 69.536C133.849 65.8667 135.428 62.88 137.177 60.576C138.926 58.272 140.633 56.6293 142.297 55.648C143.961 54.6667 145.476 54.176 146.841 54.176C148.078 54.176 149.017 54.5387 149.657 55.264C150.34 55.9467 150.681 56.9707 150.681 58.336C150.681 59.1467 150.446 60.6827 149.977 62.944H150.553Z" fill="#003E9A"/>
</svg>
